<svg xmlns="http://www.w3.org/2000/svg" width="220.214" height="52" viewBox="0 0 220.214 52">
  <g id="Grupo_331" data-name="Grupo 331" transform="translate(-181.786 -137)">
    <text id="Label_Left" data-name="Label Left" transform="translate(252 179)" fill="rgba(0,0,0,0.87)" font-size="36" font-family="RobotoMono-Regular, Roboto Mono" letter-spacing="-0.008em"><tspan x="0" y="0">dashfin</tspan></text>
    <g id="analytics-24px" transform="translate(181.786 137)">
      <path id="Caminho_1" data-name="Caminho 1" d="M0,0H54.428V52H0Z" fill="none"/>
      <path id="Caminho_2" data-name="Caminho 2" d="M46.047,3H8.381A5.267,5.267,0,0,0,3,8.111V43.889A5.267,5.267,0,0,0,8.381,49H46.047a5.267,5.267,0,0,0,5.381-5.111V8.111A5.267,5.267,0,0,0,46.047,3Zm-26.9,35.778H13.762V26h5.381Zm10.762,0H24.524V31.111H29.9ZM29.9,26H24.524V20.889H29.9ZM40.666,38.778H35.285V13.222h5.381Z" transform="translate(0 0)"/>
    </g>
  </g>
</svg>
